<svg width="111" height="22" viewBox="0 0 111 22" fill="none" xmlns="http://www.w3.org/2000/svg">
<path d="M28.408 11.69H26.068V17H23.764V4.4H26.068V9.674H28.48L32.098 4.4H34.582L30.28 10.502L34.744 17H32.098L28.408 11.69ZM39.7854 7.28C41.2014 7.28 42.2814 7.622 43.0254 8.306C43.7814 8.978 44.1594 9.998 44.1594 11.366V17H42.0354V15.83C41.7594 16.25 41.3634 16.574 40.8474 16.802C40.3434 17.018 39.7314 17.126 39.0114 17.126C38.2914 17.126 37.6614 17.006 37.1214 16.766C36.5814 16.514 36.1614 16.172 35.8614 15.74C35.5734 15.296 35.4294 14.798 35.4294 14.246C35.4294 13.382 35.7474 12.692 36.3834 12.176C37.0314 11.648 38.0454 11.384 39.4254 11.384H41.9094V11.24C41.9094 10.568 41.7054 10.052 41.2974 9.692C40.9014 9.332 40.3074 9.152 39.5154 9.152C38.9754 9.152 38.4414 9.236 37.9134 9.404C37.3974 9.572 36.9594 9.806 36.5994 10.106L35.7174 8.468C36.2214 8.084 36.8274 7.79 37.5354 7.586C38.2434 7.382 38.9934 7.28 39.7854 7.28ZM39.4794 15.488C40.0434 15.488 40.5414 15.362 40.9734 15.11C41.4174 14.846 41.7294 14.474 41.9094 13.994V12.878H39.5874C38.2914 12.878 37.6434 13.304 37.6434 14.156C37.6434 14.564 37.8054 14.888 38.1294 15.128C38.4534 15.368 38.9034 15.488 39.4794 15.488ZM52.5626 11.996C53.1626 12.164 53.6246 12.44 53.9486 12.824C54.2846 13.196 54.4526 13.646 54.4526 14.174C54.4526 14.762 54.2546 15.284 53.8586 15.74C53.4626 16.184 52.9166 16.532 52.2206 16.784C51.5246 17.036 50.7326 17.162 49.8446 17.162C49.1006 17.162 48.3746 17.078 47.6666 16.91C46.9586 16.73 46.3166 16.478 45.7406 16.154L46.3886 14.48C46.8566 14.744 47.3846 14.948 47.9726 15.092C48.5606 15.236 49.1486 15.308 49.7366 15.308C50.4926 15.308 51.0806 15.194 51.5006 14.966C51.9326 14.726 52.1486 14.402 52.1486 13.994C52.1486 13.622 51.9806 13.334 51.6446 13.13C51.3206 12.926 50.8586 12.824 50.2586 12.824H48.3866V11.312H50.0786C50.6426 11.312 51.0806 11.216 51.3926 11.024C51.7166 10.832 51.8786 10.562 51.8786 10.214C51.8786 9.866 51.6866 9.59 51.3026 9.386C50.9186 9.182 50.3906 9.08 49.7186 9.08C48.7586 9.08 47.7446 9.314 46.6766 9.782L46.1006 8.126C47.3606 7.538 48.6326 7.244 49.9166 7.244C50.7326 7.244 51.4646 7.358 52.1126 7.586C52.7606 7.802 53.2646 8.114 53.6246 8.522C53.9966 8.918 54.1826 9.374 54.1826 9.89C54.1826 10.358 54.0386 10.778 53.7506 11.15C53.4626 11.51 53.0666 11.792 52.5626 11.996ZM60.3694 7.28C61.7854 7.28 62.8654 7.622 63.6094 8.306C64.3654 8.978 64.7434 9.998 64.7434 11.366V17H62.6194V15.83C62.3434 16.25 61.9474 16.574 61.4314 16.802C60.9274 17.018 60.3154 17.126 59.5954 17.126C58.8754 17.126 58.2454 17.006 57.7054 16.766C57.1654 16.514 56.7454 16.172 56.4454 15.74C56.1574 15.296 56.0134 14.798 56.0134 14.246C56.0134 13.382 56.3314 12.692 56.9674 12.176C57.6154 11.648 58.6294 11.384 60.0094 11.384H62.4934V11.24C62.4934 10.568 62.2894 10.052 61.8814 9.692C61.4854 9.332 60.8914 9.152 60.0994 9.152C59.5594 9.152 59.0254 9.236 58.4974 9.404C57.9814 9.572 57.5434 9.806 57.1834 10.106L56.3014 8.468C56.8054 8.084 57.4114 7.79 58.1194 7.586C58.8274 7.382 59.5774 7.28 60.3694 7.28ZM60.0634 15.488C60.6274 15.488 61.1254 15.362 61.5574 15.11C62.0014 14.846 62.3134 14.474 62.4934 13.994V12.878H60.1714C58.8754 12.878 58.2274 13.304 58.2274 14.156C58.2274 14.564 58.3894 14.888 58.7134 15.128C59.0374 15.368 59.4874 15.488 60.0634 15.488ZM67.5276 7.388H69.7776V11.294H74.6196V7.388H76.8696V17H74.6196V13.202H69.7776V17H67.5276V7.388ZM84.709 10.556C85.933 10.556 86.869 10.832 87.517 11.384C88.177 11.936 88.507 12.716 88.507 13.724C88.507 14.78 88.147 15.596 87.427 16.172C86.707 16.748 85.693 17.03 84.385 17.018L79.885 17V7.388H82.135V10.538L84.709 10.556ZM84.187 15.362C84.847 15.374 85.351 15.236 85.699 14.948C86.047 14.66 86.221 14.24 86.221 13.688C86.221 13.148 86.053 12.752 85.717 12.5C85.381 12.248 84.871 12.116 84.187 12.104L82.135 12.086V15.344L84.187 15.362Z" fill="white"/>
<path d="M8.99992 1C5.57994 1 2.80835 3.77236 2.80835 7.19234C2.80835 9.79932 6.40723 15.8066 8.11726 18.514C8.30889 18.8167 8.64259 19 9.00054 19C9.35864 18.9992 9.69164 18.8161 9.88269 18.5134C11.5933 15.8054 15.1916 9.79929 15.1916 7.1923C15.1916 3.77236 12.42 1 8.99992 1ZM8.99992 10.9728C7.0658 10.9728 5.49784 9.40501 5.49784 7.47063C5.49784 5.53647 7.06576 3.96855 8.99992 3.96855C10.9341 3.96855 12.502 5.53644 12.502 7.47063C12.502 9.40501 10.9341 10.9728 8.99992 10.9728Z" fill="#F4683F"/>
<g clip-path="url(#clip0_102_1815)">
<path d="M101.093 12.8842L105.218 8.75916L106.396 9.93749L101.093 15.2408L95.7898 9.93749L96.9681 8.75915L101.093 12.8842Z" fill="white"/>
</g>
<defs>
<clipPath id="clip0_102_1815">
<rect width="20" height="20" fill="white" transform="translate(91 2)"/>
</clipPath>
</defs>
</svg>
